PathFileType	4	(X/Y/Z)	C:\Users\Basilio\Documents\Thesis Gigler\squatting_fais\c3dfiles\073\SLS_front_pre4\markers_experimental.trc
DataRate	CameraRate	NumFrames	NumMarkers	Units	OrigDataRate	OrigDataStartFrame	OrigNumFrames
200.000000	200.000000	4	61	mm	200.000000	830	1329
Frame#	Time	FHD			LBHD			RBHD			C7			T10			CLAV			LSHO			LUUPA			LMUPA			LDUPA			LLEP			LMEP			LRAD			LUL			LRFIN			RSHO			RUPA1			RMUPA			RDUPA			RLEP			RMEP			RRAD			RUL			RUFIN			LASI			RASI			USACR			LSACR			RSACR			LTHI1			LTHI2			LTHI3			LTHI4			LLFC			LMFC			LTIB1			LTIB2			LTIB3			LTIB4			LLMAL			LMMAL			LHEE			LMT1			LMT2			LMT5			RTHI			RTHI2			RTHI3			RTHI4			RLFC			RMFC			RTIB1			RTIB2			RTIB3			RTIB4			RLMAL			RMMAL			RHEE			RMT1			RMT2			RMT5			
		X1	Y1	Z1	X2	Y2	Z2	X3	Y3	Z3	X4	Y4	Z4	X5	Y5	Z5	X6	Y6	Z6	X7	Y7	Z7	X8	Y8	Z8	X9	Y9	Z9	X10	Y10	Z10	X11	Y11	Z11	X12	Y12	Z12	X13	Y13	Z13	X14	Y14	Z14	X15	Y15	Z15	X16	Y16	Z16	X17	Y17	Z17	X18	Y18	Z18	X19	Y19	Z19	X20	Y20	Z20	X21	Y21	Z21	X22	Y22	Z22	X23	Y23	Z23	X24	Y24	Z24	X25	Y25	Z25	X26	Y26	Z26	X27	Y27	Z27	X28	Y28	Z28	X29	Y29	Z29	X30	Y30	Z30	X31	Y31	Z31	X32	Y32	Z32	X33	Y33	Z33	X34	Y34	Z34	X35	Y35	Z35	X36	Y36	Z36	X37	Y37	Z37	X38	Y38	Z38	X39	Y39	Z39	X40	Y40	Z40	X41	Y41	Z41	X42	Y42	Z42	X43	Y43	Z43	X44	Y44	Z44	X45	Y45	Z45	X46	Y46	Z46	X47	Y47	Z47	X48	Y48	Z48	X49	Y49	Z49	X50	Y50	Z50	X51	Y51	Z51	X52	Y52	Z52	X53	Y53	Z53	X54	Y54	Z54	X55	Y55	Z55	X56	Y56	Z56	X57	Y57	Z57	X58	Y58	Z58	X59	Y59	Z59	X60	Y60	Z60	X61	Y61	Z61	

831	4.15	-129.3914642333985	1453.51171875	-784.360046386719	-264.4620056152344	1429.74609375	-810.2744140625002	-289.2799072265626	1411.533325195313	-677.1642456054689	-316.7729492187501	1335.165161132813	-743.0572509765626	-521.7008056640626	1077.106201171875	-751.9492187500001	-228.6640625000001	1211.174560546875	-742.7954711914064	-237.0693054199219	1283.578247070313	-877.0426025390627	-164.3027496337891	1211.742431640625	-977.760192871094	-122.8604278564453	1226.760986328125	-953.8624267578127	-104.3679504394532	1179.948974609375	-987.7586059570315	-1.349440693855286	1149.3193359375	-991.091247558594	-6.96078395843506	1095.776123046875	-945.208435058594	259.1003723144532	1175.615966796875	-881.1055908203127	262.9844055175782	1171.981811523438	-955.6411132812502	338.8583679199219	1190.709228515625	-874.1945800781252	-231.7802886962891	1272.043090820313	-610.4533691406251	-152.1207580566407	1175.535034179688	-504.7531127929689	-111.9348602294922	1195.192626953125	-522.8709716796876	-90.39224243164064	1145.372192382813	-497.7869567871095	1.60752272605896	1125.480224609375	-498.3495483398439	-3.365373373031617	1069.988891601563	-559.4771118164064	255.7014312744141	1150.594604492188	-617.9912719726564	265.0750122070313	1162.735961914063	-542.5578002929689	342.2847595214844	1174.44580078125	-626.2098999023439	-410.5585937500001	891.7454223632815	-883.8399047851565	-400.3155822753907	879.3353271484377	-637.4569091796876	-578.5358276367189	941.8648681640627	-752.2317504882814	-589.3447875976564	912.8032836914065	-781.164001464844	-590.0977783203126	908.3934326171877	-725.6318969726564	-233.2441558837891	696.2086791992189	-941.8562622070315	-152.3325958251953	683.1234130859376	-918.6651611328127	-136.8543395996094	717.1051025390626	-885.397644042969	-126.1552734375	631.4572143554689	-909.7852783203127	-78.33351898193361	597.7666625976564	-908.8591308593752	-84.58119964599611	587.2321166992189	-768.7719726562502	100.2987442016602	505.9870910644532	-852.5254516601565	95.06406402587892	439.0996398925782	-908.4660644531252	126.2203140258789	463.2043457031251	-885.961853027344	184.4165649414063	411.4150390625001	-852.1489868164065	233.8977661132813	287.4926147460938	-880.3465576171877	220.0689849853516	307.0407714843751	-795.6215820312502	215.8529968261719	221.0190734863282	-841.142761230469	371.1766967773438	375.6993713378907	-786.6688232421877	374.3190307617188	379.6479187011719	-825.7256469726565	369.3692932128907	340.5502929687501	-881.4245605468752	-354.4108886718751	655.9971313476564	-587.5571289062501	-290.8410339355469	636.3558349609376	-590.0868530273439	-265.9193725585938	658.1928100585939	-593.1580810546876	-261.8773803710938	562.0838623046876	-616.2036743164064	-173.7479553222657	458.3384094238282	-646.4517211914064	-170.2300872802735	467.7558593750001	-774.9553222656252	-190.2319793701172	313.0554809570313	-754.4880981445314	-240.4564666748047	239.6719207763672	-693.4272460937501	-223.1439514160157	233.8489685058594	-737.2940673828126	-262.3227233886719	206.2615051269532	-770.279724121094	-354.9333801269532	98.46389007568362	-721.5217285156251	-345.5412597656251	128.896240234375	-808.152770996094	-432.3697204589845	85.01866149902345	-777.122253417969	-208.5114288330079	54.46003341674806	-788.446960449219	-209.2137756347657	51.53273010253908	-746.6316528320314	-253.3148803710938	34.49009323120118	-699.3933715820314	
832	4.155	-129.4228515625	1455.006591796875	-784.528015136719	-264.7948303222657	1430.991577148438	-810.3992919921877	-289.5023498535157	1412.779174804688	-677.3576660156251	-316.9700927734376	1336.609375	-743.2600097656251	-521.5158691406251	1078.082153320313	-751.8626098632814	-228.6516571044922	1212.7080078125	-742.8635864257814	-237.330062866211	1285.001342773438	-877.1834716796877	-164.4830627441407	1213.1083984375	-977.9418945312502	-123.0168380737305	1228.056396484375	-953.9400634765627	-104.5391387939453	1180.727783203125	-987.600524902344	-1.671700716018677	1150.79052734375	-991.1079711914065	-7.199528694152834	1097.139526367188	-945.3213500976565	258.9834289550782	1177.126831054688	-881.249450683594	262.6820678710938	1173.402099609375	-955.640808105469	338.5236511230469	1192.190551757813	-874.073181152344	-231.8927154541016	1273.619995117188	-610.5419311523439	-152.1987762451172	1176.953247070313	-504.8390197753907	-112.018539428711	1196.612426757813	-522.9358520507814	-90.45333862304689	1146.818725585938	-497.8292236328126	1.474653601646424	1126.9677734375	-498.3178710937501	-3.420788764953614	1071.244140625	-559.4986572265626	255.4645538330079	1151.9296875	-617.5748901367189	265.0559082031251	1164.167236328125	-542.5329589843751	342.1698608398438	1175.840698242188	-626.0989379882814	-410.5204162597657	892.872985839844	-883.7374267578127	-400.0319824218751	880.2775878906252	-637.3917846679689	-578.3748168945314	942.9654541015627	-752.1690673828126	-589.2243652343751	914.0169677734377	-781.062683105469	-589.8528442382814	909.6545410156252	-725.4791870117189	-233.5334625244141	696.7504272460939	-941.7822875976565	-152.7188415527344	683.6130981445314	-918.516784667969	-136.9810943603516	717.5667724609376	-885.315368652344	-126.5996780395508	631.8734130859376	-909.5822753906252	-78.8414764404297	598.0814819335939	-908.8182373046877	-85.20602416992189	587.6039428710939	-768.6651000976565	99.61451721191409	505.8325500488282	-852.4217529296877	94.32146453857423	438.920135498047	-908.2693481445315	125.3707580566407	462.979217529297	-885.7720947265627	183.5080261230469	411.0489807128907	-851.9880981445315	232.8061218261719	287.0667419433594	-880.1912841796877	218.7748107910157	306.5749511718751	-795.510681152344	214.5413818359376	220.601791381836	-841.1226806640627	370.1769104003907	374.9056701660157	-786.5335083007815	373.3903503417969	378.8813781738282	-825.419128417969	368.1735839843751	339.6072692871094	-880.9766235351565	-354.5406494140626	656.7894287109376	-587.7698974609376	-291.0892944335938	636.8933105468751	-590.3735351562501	-266.0583496093751	658.7983398437501	-593.4961547851564	-262.3543090820313	562.6652832031251	-616.6146240234376	-174.4102020263672	458.7085266113282	-646.9611206054689	-171.229721069336	468.1125488281251	-775.348327636719	-190.7297515869141	313.3609008789063	-754.9635620117189	-240.6191711425782	239.7534484863282	-693.4390258789064	-223.3329010009766	233.9654235839844	-737.8012695312501	-262.5741577148438	206.4232177734376	-770.6197509765627	-354.9875488281251	98.6348571777344	-721.8008422851564	-345.7020874023438	128.7460021972657	-808.520935058594	-432.3771057128907	84.96817779541017	-777.1754150390627	-208.4985656738282	54.42118453979494	-788.5239257812502	-209.1823272705079	51.63506317138673	-746.7078247070314	-253.3274841308594	34.56573104858399	-699.4340209960939	
833	4.16	-130.015853881836	1456.347290039063	-784.7078247070315	-264.9582214355469	1432.469360351563	-810.5634765625002	-289.6983337402344	1414.311767578125	-677.5028076171876	-317.1305847167969	1337.879272460938	-743.3734130859376	-521.3750610351564	1079.205322265625	-751.8521118164064	-228.8174438476563	1214.016845703125	-742.9767456054689	-237.4141387939454	1286.315307617188	-877.300720214844	-164.5994720458985	1214.374267578125	-977.887634277344	-123.2140731811524	1229.494506835938	-954.110290527344	-104.714225769043	1182.520385742188	-988.3100585937502	-1.830623030662537	1152.102783203125	-991.2491455078127	-7.290965080261232	1098.49853515625	-945.4299316406252	258.7992553710938	1178.659301757813	-881.2036743164065	262.5504455566407	1175.0458984375	-955.7137451171877	338.3481750488282	1193.869140625	-874.048767089844	-231.9977264404297	1274.898681640625	-610.5534057617189	-152.2841949462891	1178.429931640625	-504.7890930175782	-112.1223373413086	1198.061767578125	-522.9494018554689	-90.56510162353517	1148.322143554688	-497.8135375976564	1.422048449516297	1128.410278320313	-498.2136535644532	-3.462006330490113	1072.816528320313	-559.4034423828126	255.1526031494141	1153.141479492188	-617.6000976562501	264.8718872070313	1165.646850585938	-542.3805541992189	342.0645751953126	1177.1748046875	-626.1524658203126	-410.3416442871095	893.7165527343752	-883.8816528320315	-399.7705383300782	881.369567871094	-637.4426269531251	-578.2563476562501	944.2056884765627	-752.0364379882814	-589.0811157226564	915.2437744140627	-780.8978271484377	-589.6094360351564	910.7647094726565	-725.3018798828126	-233.8663177490235	697.4364624023439	-941.624938964844	-152.9409332275391	684.1671142578126	-918.427429199219	-137.1710815429688	717.9805908203126	-885.2224731445315	-126.882064819336	632.2108154296876	-909.5144042968752	-79.3263626098633	598.3323364257814	-908.6251220703127	-85.77296447753908	587.9039916992189	-768.6663208007815	98.96437072753909	505.703826904297	-852.3496704101565	93.40562438964845	438.7903442382814	-908.1031494140627	124.6033401489258	462.791473388672	-885.4490356445315	182.51513671875	410.7317810058595	-852.0673828125002	231.3649444580079	286.5646667480469	-879.9295043945315	217.6071014404297	306.0848083496094	-795.333923339844	213.0001831054688	220.1854553222657	-840.8250732421877	369.0328674316407	373.9403381347657	-786.0344238281252	372.0977783203126	377.9463195800782	-825.0621337890627	367.1682739257813	338.7140197753907	-880.7683105468752	-354.7030944824219	657.5659179687501	-588.0059814453126	-291.3499145507813	637.5267944335939	-590.7863769531251	-266.2248535156251	659.4287719726564	-593.9334106445314	-262.7680969238282	563.2241210937501	-617.0790405273439	-175.0457763671875	459.0681152343751	-647.4966430664064	-172.1858978271485	468.4645385742189	-775.887390136719	-191.230697631836	313.7112426757813	-755.6380004882814	-240.7713775634766	239.8633270263672	-694.1516723632814	-223.5269775390626	234.1454315185547	-738.3471679687501	-262.7880859375001	206.5961151123047	-771.0946044921877	-354.9850769042969	98.80335235595706	-722.0726318359376	-345.8774414062501	128.5873107910157	-808.8928833007815	-432.3879394531251	84.93018341064455	-777.2838134765627	-208.4725952148438	54.4080276489258	-788.599548339844	-209.1493835449219	51.72938537597658	-746.7827148437501	-253.2870788574219	34.66785049438477	-699.5245971679689	
834	4.165	-130.2947540283203	1457.83251953125	-784.745788574219	-265.0884094238282	1433.820190429688	-810.7147216796877	-289.9169616699219	1415.669677734375	-677.7644042968751	-317.3298950195313	1339.214477539063	-743.4199829101564	-521.2136230468751	1080.313720703125	-751.7908935546876	-228.963607788086	1215.48095703125	-743.1505126953126	-237.5602722167969	1287.705688476563	-877.393493652344	-164.6450958251953	1215.791137695313	-978.1768188476565	-123.3117828369141	1230.850952148438	-954.0874633789065	-104.8376846313477	1183.505737304688	-987.7879028320315	-1.808842182159424	1153.520751953125	-991.3876953125002	-7.31971597671509	1100.004760742188	-945.7393798828127	258.5921630859376	1180.181396484375	-881.3850708007815	262.6232910156251	1176.553955078125	-955.7434082031252	338.4086608886719	1195.4404296875	-874.422058105469	-232.1265716552735	1276.455932617188	-610.7039794921876	-152.3706359863282	1179.90576171875	-504.8387756347657	-112.2129211425782	1199.546630859375	-523.0203857421876	-90.61739349365236	1149.771850585938	-497.8444213867189	1.354107022285462	1130.05322265625	-498.2198486328126	-3.580303668975831	1074.203491210938	-559.4203491210939	255.3030853271485	1154.953979492188	-617.7608032226564	264.8095092773438	1167.101684570313	-542.3579101562501	342.0896911621094	1178.664916992188	-625.8380737304689	-410.1363830566407	895.0449829101565	-883.7741699218752	-399.554901123047	882.403503417969	-637.5280151367189	-578.0825195312501	945.4501953125002	-752.0023193359376	-588.9640502929689	916.3197021484377	-780.789978027344	-589.5098266601564	912.0166625976565	-725.1523437500001	-234.0920562744141	698.1892700195314	-941.4573974609377	-153.1944274902344	684.6409301757814	-918.279968261719	-137.3706512451172	718.4354858398439	-885.0424804687502	-127.2040328979492	632.6079101562501	-909.4390869140627	-79.74165344238283	598.6201782226564	-908.3967285156252	-86.29780578613283	588.2088012695314	-768.5820922851565	98.25861358642581	505.5654296875001	-852.1096801757815	92.2680130004883	438.7455139160157	-907.8625488281252	123.7581329345703	462.6002502441407	-885.3074951171877	181.5980834960938	410.4108276367189	-851.7335205078127	230.0526123046876	286.1477966308594	-879.7775878906252	216.3338775634766	305.6492309570313	-794.9838867187502	211.4693145751954	219.7624511718751	-840.5954589843752	367.8193054199219	373.1516723632813	-785.5574951171877	371.2231750488282	377.0693359375001	-824.973327636719	366.1867675781251	337.8789367675782	-880.4194335937502	-354.7928466796876	658.3109130859376	-588.3471069335939	-291.4983215332032	638.1723632812501	-591.2061767578126	-266.3508300781251	659.8919067382814	-594.3952636718751	-263.2179870605469	563.8051147460939	-617.5522460937501	-175.7166900634766	459.3726501464845	-648.1431884765626	-173.1968078613282	468.860321044922	-776.357360839844	-191.7369384765625	314.0012207031251	-756.2706298828126	-240.9335327148438	240.0086822509766	-694.9123535156251	-223.7337951660157	234.388656616211	-739.0387573242189	-263.1080322265626	206.7399291992188	-771.6660156250002	-355.0389404296876	98.94289398193362	-722.3110961914064	-345.9930725097657	128.4574127197266	-809.2845458984377	-432.3706359863282	84.87821197509767	-777.4274902343752	-208.2739562988282	54.42607879638673	-788.3601684570315	-209.1710357666016	51.82595443725587	-746.8951416015626	-253.3140106201172	34.79387283325196	-699.6075439453126	
